#N canvas 0 0 800 600 10;
#X obj 100 100 noise~;
#X obj 100 130 bp~ 200 50;
#X obj 200 100 osc~ 400;
#X obj 200 130 *~ 0.1;
#X obj 300 100 random 100;
#X obj 300 130 + 200;
#X obj 300 160 osc~;
#X obj 300 190 *~ 0.05;
#X obj 150 250 +~;
#X obj 150 280 *~ 0.3;
#X obj 150 310 dac~;
#X connect 0 0 1 0;
#X connect 1 0 8 0;
#X connect 2 0 3 0;
#X connect 3 0 8 1;
#X connect 4 0 5 0;
#X connect 5 0 6 0;
#X connect 6 0 7 0;
#X connect 7 0 8 0;
#X connect 8 0 9 0;
#X connect 9 0 10 0;
#X connect 9 0 10 1;
